<svg
   height="8.86in"
   viewBox="0 0 851 851"
   width="8.86in"
   xmlns="http://www.w3.org/2000/svg">
  <path
   d="M 410.5,850.46925 C 318.55493,847.28865 229.34971,813.89035 157.83898,755.8734 136.02537,738.1759 112.8241,714.9746 95.12662,693.161 56.693045,645.78845 28.678581,590.05035 13.489125,530.7336 -8.476406,444.95535 -2.90621,353.60548 29.326769,271 47.315843,224.89827 72.751035,183.13351 106.31244,144.58898 c 8.21657,-9.43655 28.83999,-30.05997 38.27654,-38.27654 C 183.13351,72.751035 224.89827,47.315843 271,29.326769 c 99.21567,-38.7143415 209.78433,-38.7143415 309,0 46.10175,17.989074 87.8665,43.424261 126.411,76.985671 9.43655,8.21657 30.06,28.83999 38.27655,38.27654 33.5614,38.54453 58.9966,80.30929 76.9857,126.41102 38.7143,99.21567 38.7143,209.78433 0,309 -17.9891,46.10175 -43.4243,87.8665 -76.9857,126.411 -8.21655,9.43655 -28.84,30.06 -38.27655,38.27655 -28.18705,24.54295 -56.68105,43.8414 -88.661,60.04835 -49.14815,24.90755 -100.9463,39.6411 -156.45928,44.50355 -7.96924,0.69805 -34.15597,1.84235 -38.29072,1.67325 -0.9625,-0.0395 -6.5875,-0.2389 -12.5,-0.44345 z M 435.26047,698.8212 c 3.25351,-1.5151 5.59014,-3.8907 7.19802,-7.31815 L 443.75,688.75 443.7505,623 c 5e-4,-68.90165 0.0417,-70.43165 2.26637,-84.36525 C 452.62793,497.22927 474.27782,458.81256 507,430.42308 510.79895,427.12713 521.5463,419 522.1059,419 c 0.2113,0 0.44265,43.93125 0.51415,97.625 l 0.12995,97.625 1.3715,2.333 c 2.84895,4.84645 7.399,7.417 13.1285,7.417 5.7295,0 10.27955,-2.57055 13.1285,-7.417 l 1.3715,-2.333 0.14675,-99 c 0.1006,-67.86176 -0.0235,-101.109 -0.3947,-105.70529 -0.31435,-3.89263 -0.35575,-6.89102 -0.0987,-7.14808 0.24355,-0.24353 2.55865,-1.24211 5.14475,-2.21905 18.6522,-7.04632 31.2277,-10.15614 48.09705,-11.89403 9.3032,-0.95842 23.852,-1.55602 23.86475,-0.98026 0.005,0.2457 0.21975,1.90921 0.4762,3.69671 1.81455,12.64718 2.0139,20.88964 2.0139,83.27755 0,68.27695 -0.20585,64.04955 3.3191,68.1677 0.9707,1.134 2.8147,2.67895 4.0979,3.43325 2.1014,1.23535 2.8045,1.3715 7.083,1.3715 4.2785,0 4.9816,-0.13615 7.083,-1.3715 3.06275,-1.8004 5.66965,-4.90705 6.7752,-8.07385 0.837,-2.39775 0.89105,-6.27075 0.87955,-63.05465 -0.013,-63.0714 -0.2196,-71.07852 -2.24755,-87.01113 C 650.36875,327.8609 617.32015,271.3894 568.25,234.39619 c -35.1908,-26.52981 -76.76432,-42.11888 -122.5,-45.93458 -9.15987,-0.7642 -35.24817,-0.31082 -43.75,0.76032 -39.43201,4.96802 -74.98954,18.72899 -106.79748,41.33124 -54.09527,38.43932 -89.17123,98.14106 -95.95282,163.31845 -1.33069,12.7891 -1.61988,30.78672 -1.40402,87.37838 0.23445,61.46745 -0.0147,57.4616 3.83474,61.6378 3.28421,3.56295 5.26095,4.35945 10.81958,4.35945 3.91907,0 5.09986,-0.18915 6.75,-1.08125 2.69021,-1.4544 5.47444,-4.4271 6.71166,-7.166 1.00386,-2.2223 1.01651,-3.00425 1.02736,-63.50498 0.0111,-61.98999 0.2177,-70.58598 2.01655,-83.9062 0.27193,-2.01365 0.49443,-3.90312 0.49443,-4.19882 0,-0.5928 12.01132,-0.23756 21.75,0.64327 21.90052,1.98082 40.24287,7.14515 61,17.17468 27.18435,13.13505 49.93396,32.22847 68.03021,57.09676 14.45153,19.85962 25.20215,43.83864 29.91262,66.71939 3.81453,18.5287 4.30332,30.17645 4.31092,102.7259 l 0.006,57.5 1.16905,2.5105 c 2.50653,5.3826 7.11506,8.22975 13.32118,8.22975 2.88161,0 4.33135,-0.27075 6.26047,-1.16905 z M 426.97646,485.875 c -2.27258,-5.73026 -8.76973,-18.70533 -12.14703,-24.2581 -10.47949,-17.22983 -22.63575,-32.59343 -35.92973,-45.40956 -10.17591,-9.81014 -26.42277,-22.64081 -33.87754,-26.75418 -2.19607,-1.21174 -3.99945,-2.40161 -4.00751,-2.64415 -0.008,-0.24254 1.00532,-2.69629 2.25196,-5.45279 11.0383,-24.40724 30.95421,-42.54992 56.27874,-51.26791 11.55965,-3.97942 23.86465,-5.59617 35.21182,-4.62647 20.87412,1.78386 38.89985,8.93208 53.70861,21.29851 5.47698,4.57369 13.23112,12.67276 15.70907,16.40789 1.05865,1.59576 2.22635,3.0171 2.5949,3.15853 0.3686,0.14143 4.7899,-1.99094 9.8252,-4.73859 5.03525,-2.74766 10.7863,-5.62102 12.78005,-6.38525 1.99375,-0.76423 3.625,-1.52331 3.625,-1.68685 0,-1.07585 -10.77115,-14.30539 -16.2015,-19.89933 -13.22585,-13.62428 -26.56892,-22.64812 -43.2985,-29.28255 -21.42593,-8.49687 -47.63051,-10.38144 -70.99976,-5.10614 -34.17006,7.71343 -63.27622,29.15415 -80.70698,59.45188 -2.71475,4.71871 -6.79326,13.57517 -6.79326,14.7515 0,0.33939 -1.32945,0.0446 -3.375,-0.74819 -22.84843,-8.85612 -45.0174,-13.68729 -66.98321,-14.59733 l -8.10821,-0.33592 1.68244,-5 c 3.6075,-10.72104 11.14112,-26.70606 17.63052,-37.40888 9.63777,-15.89534 19.19229,-27.897 32.71518,-41.09429 33.68811,-32.87698 77.04628,-52.43592 124.7788,-56.28791 10.41405,-0.84041 32.17782,-0.32385 41.90948,0.99471 46.2981,6.27301 85.8292,26.11617 118.25,59.35715 18.7578,19.23234 31.149,37.97243 42.21005,63.83722 2.88615,6.74889 5.78995,14.56185 5.78995,15.57845 0,0.0666 -3.76875,0.25515 -8.375,0.41898 -39.80745,1.4158 -81.62565,16.73523 -115.30316,42.23949 -28.4497,21.54519 -52.2996,51.54437 -65.283,82.11508 -0.87595,2.0625 -1.9522,4.59375 -2.39167,5.625 -0.43948,1.03125 -0.96458,1.875 -1.1669,1.875 -0.20233,0 -1.10404,-1.85625 -2.00381,-4.125 z M 327.5,622.78285 c 2.40164,-1.22555 5.36754,-4.1316 6.66737,-6.53285 l 1.08263,-2 0.13082,-82.9616 0.13083,-82.96155 -1.13083,-1.20553 c -1.38105,-1.4723 -10.69572,-8.48123 -16.06785,-12.09045 C 314.5715,432.5172 307.23127,428.5 306.37975,428.5 c -0.21883,0 -0.33755,41.45625 -0.26381,92.125 l 0.13406,92.125 1.14967,2.5 c 1.81572,3.94835 5.19298,7.03405 9.09709,8.31175 2.134,0.69845 9.07043,0.2074 11.00324,-0.7789 z"
   fill="#8D029B" />
</svg>
